<svg xmlns="http://www.w3.org/2000/svg" version="1.1" xmlns:xlink="http://www.w3.org/1999/xlink" xmlns:svgjs="http://svgjs.dev/svgjs" width="2000" height="1500" viewBox="0 0 2000 1500"><rect width="2000" height="1500" fill="#f3e8e0"></rect><g transform="matrix(0.75,0,0,0.75,248.99371848027818,158.6959069833572)"><svg viewBox="0 0 313 247" data-background-color="#f3e8e0" preserveAspectRatio="xMidYMid meet" height="1578" width="2000" xmlns="http://www.w3.org/2000/svg" xmlns:xlink="http://www.w3.org/1999/xlink"><g id="tight-bounds" transform="matrix(1,0,0,1,0.21018070317651905,-0.08542178428368175)"><svg viewBox="0 0 312.5797786623095 247.2" height="247.2" width="312.5797786623095"><g><svg viewBox="0 0 395.52 312.79228751910716" height="247.2" width="312.5797786623095"><g transform="matrix(1,0,0,1,0,164.10471166065375)"><svg viewBox="0 0 395.52 148.68757585845339" height="148.68757585845339" width="395.52"><g id="textblocktransform"><svg viewBox="0 0 395.52 148.68757585845339" height="148.68757585845339" width="395.52" id="textblock"><g><svg viewBox="0 0 395.52 114.76406437786994" height="114.76406437786994" width="395.52"><path d="M394.594 24.615C392.735 12.702 387.435 9.391 387.435 9.391 371.165-2.879 350.86-0.235 332.619 1.528 300.414 1.6 268.339 4.221 236.208 5.626 168.767 5.841 100.749 2.315 33.643 11.011 27.339 13.679-6.54 11.535 1.121 26.139 3.129 32.215 10.456 38.957 10.232 44.532 11.236 45.509 12.631 43.27 13.226 44.675 15.309 48.463 18.711 46.677 21.501 48.916 17.614 54.896 20.403 59.876 23.062 65.093 18.377 66.451 12.371 65.808 9.675 70.311 9.396 73.575 7.89 72.955 6.235 72.813 5.026 72.717 2.59 73.075 2.999 74.099 4.394 77.601-1.594 79.626 2.162 83.057-0.422 86.774 3.948 89.99 3.353 94.017 3.278 94.827 3.687 95.518 4.338 95.708 7.22 96.733 3.018 98.734 3.464 100.902 33.029 115.721 65.104 105.477 95.394 112.29 103.259 107.525 97.346 113.982 100.489 112.981 102.943 111.814 104.728 116.65 107.499 113.911 107.927 113.124 107.276 111.266 108.8 111.623 109.6 111.814 110.307 111.766 110.418 110.67 110.586 109.026 109.117 110.051 108.726 109.193 112.947 104.857 111.906 115.173 115.866 114.744 115.68 113.482 114.528 111.671 116.889 111.909 119.232 110.099 119.306 108.598 121.389 112.672 121.463 113.553 121.835 114.173 122.43 114.601 128.938 110.17 135.409 116.174 142.233 114.173 146.417 111.981 150.433 115.364 154.672 114.53 156.16 113.863 157.666 112.672 159.098 114.673 176.632 115.102 195.319 113.315 211.943 114.744 256.364 112.076 303.836 115.84 350.674 112.314 361.719 110.956 373.192 109.026 383.958 107.478 383.958 107.478 392.679 103.237 392.679 84.177S394.538 67.5 394.817 52.323C395.096 37.147 396.398 36.527 394.538 24.615Z" opacity="1" fill="#d8aa92" data-fill-palette-color="tertiary"></path><g transform="matrix(1,0,0,1,55.76832,26.068561146666667)"><svg width="283.98335999999995" viewBox="1.95 -31.74 185.97 41.019999999999996" height="62.62694208453661" data-palette-color="#6a6363"><path d="M1.95 0L13.92 0Q13.92-1.07 13.13-1.22L13.13-1.22Q12.89-1.27 12.65-1.27L12.65-1.27 10.06-1.27 10.06-28.03 13.92-28.03 13.92-29.3 1.95-29.3 1.95-28.03 5.86-28.03 5.86-1.27 1.95-1.27 1.95 0ZM17.82 0L29.78 0 29.78-1.27 25.93-1.27 25.93-13.43 30.56-13.43 38.38 0 45.75 0Q45.75-1.07 45.16-1.22L45.16-1.22Q44.92-1.27 44.58-1.27L44.58-1.27 42.72-1.27 34.86-13.87Q39.5-14.99 41.21-18.7L41.21-18.7Q41.84-20.17 41.84-21.68L41.84-21.68Q41.84-25.34 38.67-27.54L38.67-27.54Q36.08-29.3 32.27-29.3L32.27-29.3 17.82-29.3 17.82-28.03 21.73-28.03 21.73-1.27 17.82-1.27 17.82 0ZM25.93-28.03L30.81-28.03Q35.01-28.03 36.62-24.61L36.62-24.61Q37.25-23.19 37.25-21.63L37.25-21.63Q37.25-18.12 34.81-16.16L34.81-16.16Q33.15-14.84 30.95-14.84L30.95-14.84 25.93-14.84 25.93-28.03ZM52.92 0L66.35 0Q66.35-1.07 65.57-1.22L65.57-1.22Q65.33-1.27 65.08-1.27L65.08-1.27 61.76-1.27 61.76-28.03 64.59-28.03Q68.55-28.03 69.87-23.24L69.87-23.24Q69.87-23.05 69.92-22.95L69.92-22.95 70.7-19.68 72.07-19.68 71.82-29.3 47.7-29.3 47.46-19.68 48.82-19.68 49.6-22.95Q51.17-27.73 54.93-28.03L54.93-28.03 57.56-28.03 57.56-1.27 52.92-1.27 52.92 0ZM75.87-9.13L75.87-11.43 87-11.43 87-9.13 75.87-9.13ZM99.84-0.83L99.84-0.83Q103.21-0.83 104.38-2.88L104.38-2.88Q104.82-3.61 104.82-4.49L104.82-4.49Q104.82-6.54 101.85-8.01L101.85-8.01Q101.21-8.35 99.75-8.98L99.75-8.98Q95.74-10.64 94.42-12.11L94.42-12.11Q93.01-13.72 93.01-15.87L93.01-15.87Q93.01-19.24 96.72-20.61L96.72-20.61Q98.43-21.24 100.43-21.24L100.43-21.24Q103.65-21.24 106-19.87L106-19.87Q106-21.29 106.68-21.48L106.68-21.48Q106.97-21.53 107.31-21.53L107.31-21.53 107.31-15.43 106.04-15.43Q105.95-19.92 101.06-19.97L101.06-19.97Q97.4-19.97 96.52-17.82L96.52-17.82Q96.28-17.24 96.28-16.6L96.28-16.6Q96.28-14.5 99.31-13.04L99.31-13.04Q99.99-12.7 101.45-12.11L101.45-12.11Q105.41-10.5 106.73-9.03L106.73-9.03Q108.14-7.47 108.14-5.32L108.14-5.32Q108.14-1.37 103.95-0.05L103.95-0.05Q102.33 0.49 100.43 0.49L100.43 0.49Q96.91 0.44 94.33-1.27L94.33-1.27Q94.33 0 93.69 0.2L93.69 0.2Q93.4 0.24 93.01 0.24L93.01 0.24 93.01-7.18 94.37-7.18Q94.47-0.88 99.84-0.83ZM121.42-1.22L121.42-1.22 118.98-1.22 118.98-11.77Q118.98-16.21 122.06-18.21L122.06-18.21Q123.33-19.04 124.69-19.04L124.69-19.04Q127.67-19.04 128.84-16.26L128.84-16.26Q129.38-14.94 129.38-13.33L129.38-13.33 129.38-4.15Q129.38-1.9 128.31-1.46L128.31-1.46Q127.62-1.22 125.96-1.22L125.96-1.22 125.96 0 136.71 0Q136.71-1.07 135.97-1.17L135.97-1.17Q135.78-1.22 135.49-1.22L135.49-1.22 133.04-1.22 133.04-13.33Q133.04-18.65 129.53-20.56L129.53-20.56Q128.16-21.24 126.6-21.24L126.6-21.24Q122.99-21.24 120.54-18.6L120.54-18.6Q119.52-17.48 118.98-16.06L118.98-16.06 118.98-31.74 111.66-31.74 111.66-30.52 115.32-30.52 115.32-4.15Q115.32-1.9 114.05-1.46L114.05-1.46Q113.32-1.22 111.66-1.22L111.66-1.22 111.66 0 122.64 0Q122.64-1.07 121.91-1.17L121.91-1.17Q121.72-1.22 121.42-1.22ZM144.08-10.4L144.08-10.4Q144.08-17.97 148.23-19.63L148.23-19.63Q149.3-20.02 150.47-20.02L150.47-20.02Q155.89-20.02 156.77-13.18L156.77-13.18Q156.92-12.01 156.92-10.6L156.92-10.6Q156.92-2.39 152.43-0.98L152.43-0.98Q151.55-0.73 150.62-0.73L150.62-0.73Q145.69-0.73 144.42-6.59L144.42-6.59Q144.08-8.3 144.08-10.4ZM150.62-21.24L150.62-21.24Q145.93-21.24 142.81-18.02L142.81-18.02Q139.93-15.04 139.93-10.6L139.93-10.6Q139.93-4.44 144.42-1.37L144.42-1.37Q147.15 0.49 150.47 0.49L150.47 0.49Q155.16 0.49 158.24-2.83L158.24-2.83Q161.07-5.86 161.07-10.4L161.07-10.4Q161.07-16.55 156.53-19.53L156.53-19.53Q153.84-21.24 150.62-21.24ZM175.03 8.06L171.61 8.06 171.61-2.05Q174.3 0.29 177.81 0.49L177.81 0.49Q182.16 0.49 185.09-2.78L185.09-2.78Q187.92-5.96 187.92-10.84L187.92-10.84Q187.92-16.41 184.85-19.29L184.85-19.29Q182.7-21.24 179.62-21.24L179.62-21.24Q174.88-21.24 172.54-17.48L172.54-17.48Q171.96-16.5 171.56-15.43L171.56-15.43 171.32-20.75 164.29-20.75 164.29-19.53 167.95-19.53 167.95 5.13Q167.95 7.37 166.68 7.81L166.68 7.81Q165.95 8.06 164.29 8.06L164.29 8.06 164.29 9.28 176.25 9.28Q176.25 8.2 175.52 8.11L175.52 8.11Q175.32 8.06 175.03 8.06L175.03 8.06ZM178.06-19.29L178.06-19.29Q182.31-19.29 183.43-13.96L183.43-13.96Q183.77-12.35 183.77-10.35L183.77-10.35Q183.77-3.17 179.91-1.27L179.91-1.27Q178.79-0.73 177.47-0.73L177.47-0.73Q173.71-0.73 172.3-4.69L172.3-4.69Q171.56-6.69 171.56-9.42L171.56-9.42Q171.56-15.77 174.84-18.21L174.84-18.21Q176.3-19.29 178.06-19.29Z" opacity="1" transform="matrix(1,0,0,1,0,0)" fill="#6a6363" class="wordmark-text-0" data-fill-palette-color="quaternary" id="text-0"></path></svg></g></svg></g><g transform="matrix(1,0,0,1,135.34513672614796,129.54878235741901)"><svg viewBox="0 0 124.82972654770408 19.13879350103439" height="19.13879350103439" width="124.82972654770408"><g transform="matrix(1,0,0,1,0,0)"><svg width="124.82972654770408" viewBox="3.7 -37 306.52000000000004 47" height="19.13879350103439" data-palette-color="#6a6363"><path d="M16.45-26.25L16.45-26.25Q19.85-26.25 22.55-24.55 25.25-22.85 26.83-19.85 28.4-16.85 28.4-12.95L28.4-12.95Q28.4-9.1 26.83-6.08 25.25-3.05 22.58-1.33 19.9 0.4 16.55 0.4L16.55 0.4Q14.7 0.4 13.08-0.18 11.45-0.75 10.13-1.68 8.8-2.6 7.9-3.78 7-4.95 6.6-6.1L6.6-6.1 7.7-6.8 7.7 7.95Q7.7 8.8 7.15 9.4 6.6 10 5.7 10L5.7 10Q4.85 10 4.28 9.43 3.7 8.85 3.7 7.95L3.7 7.95 3.7-24Q3.7-24.85 4.28-25.43 4.85-26 5.7-26L5.7-26Q6.6-26 7.15-25.43 7.7-24.85 7.7-24L7.7-24 7.7-19.55 6.95-19.95Q7.3-21.2 8.18-22.35 9.05-23.5 10.33-24.38 11.6-25.25 13.18-25.75 14.75-26.25 16.45-26.25ZM16-22.55L16-22.55Q13.5-22.55 11.58-21.3 9.65-20.05 8.58-17.9 7.5-15.75 7.5-12.95L7.5-12.95Q7.5-10.2 8.58-8 9.65-5.8 11.58-4.55 13.5-3.3 16-3.3L16-3.3Q18.5-3.3 20.4-4.55 22.3-5.8 23.4-8 24.5-10.2 24.5-12.95L24.5-12.95Q24.5-15.75 23.4-17.9 22.3-20.05 20.4-21.3 18.5-22.55 16-22.55ZM36.15 0L36.15 0Q35.3 0 34.72-0.6 34.15-1.2 34.15-2.05L34.15-2.05 34.15-23.85Q34.15-24.7 34.72-25.28 35.3-25.85 36.15-25.85L36.15-25.85Q37.05-25.85 37.6-25.28 38.15-24.7 38.15-23.85L38.15-23.85 38.15-17.25 37.55-18.3Q37.85-19.85 38.62-21.33 39.4-22.8 40.6-23.98 41.8-25.15 43.35-25.83 44.9-26.5 46.75-26.5L46.75-26.5Q47.85-26.5 48.77-25.98 49.7-25.45 49.7-24.5L49.7-24.5Q49.7-23.45 49.15-22.95 48.6-22.45 47.9-22.45L47.9-22.45Q47.25-22.45 46.65-22.73 46.05-23 45.15-23L45.15-23Q43.9-23 42.67-22.33 41.45-21.65 40.42-20.4 39.4-19.15 38.77-17.57 38.15-16 38.15-14.2L38.15-14.2 38.15-2.05Q38.15-1.2 37.57-0.6 37 0 36.15 0ZM77.4-13L77.4-13Q77.4-9.1 75.7-6.05 74-3 71.07-1.25 68.15 0.5 64.45 0.5L64.45 0.5Q60.8 0.5 57.87-1.25 54.95-3 53.22-6.05 51.5-9.1 51.5-13L51.5-13Q51.5-16.9 53.22-19.95 54.95-23 57.87-24.75 60.8-26.5 64.45-26.5L64.45-26.5Q68.15-26.5 71.07-24.75 74-23 75.7-19.95 77.4-16.9 77.4-13ZM73.4-13L73.4-13Q73.4-15.9 72.22-18.1 71.05-20.3 69.02-21.55 67-22.8 64.45-22.8L64.45-22.8Q61.95-22.8 59.9-21.55 57.85-20.3 56.67-18.1 55.5-15.9 55.5-13L55.5-13Q55.5-10.15 56.67-7.95 57.85-5.75 59.9-4.48 61.95-3.2 64.45-3.2L64.45-3.2Q67-3.2 69.02-4.48 71.05-5.75 72.22-7.95 73.4-10.15 73.4-13ZM87.89-23.85L87.89 1.7Q87.89 4.25 86.77 6.05 85.64 7.85 83.94 8.85 82.24 9.85 80.39 9.85L80.39 9.85Q79.54 9.85 79.02 9.3 78.49 8.75 78.49 8L78.49 8 78.49 7.65Q78.49 6.9 78.99 6.45 79.49 6 80.24 5.8L80.24 5.8Q81.39 5.5 82.19 4.88 82.99 4.25 83.44 3.23 83.89 2.2 83.89 0.8L83.89 0.8 83.89-23.85Q83.89-24.7 84.47-25.3 85.04-25.9 85.89-25.9L85.89-25.9Q86.79-25.9 87.34-25.3 87.89-24.7 87.89-23.85L87.89-23.85ZM85.89-29.6L85.89-29.6Q84.64-29.6 84.04-30.1 83.44-30.6 83.44-31.65L83.44-31.65 83.44-32.35Q83.44-33.4 84.09-33.9 84.74-34.4 85.94-34.4L85.94-34.4Q87.14-34.4 87.74-33.9 88.34-33.4 88.34-32.35L88.34-32.35 88.34-31.65Q88.34-30.6 87.72-30.1 87.09-29.6 85.89-29.6ZM108.49 0.5L108.49 0.5Q104.49 0.5 101.49-1.2 98.49-2.9 96.84-5.88 95.19-8.85 95.19-12.75L95.19-12.75Q95.19-17.1 96.92-20.18 98.64-23.25 101.39-24.88 104.14-26.5 107.24-26.5L107.24-26.5Q109.59-26.5 111.72-25.65 113.84-24.8 115.52-23.18 117.19-21.55 118.19-19.28 119.19-17 119.24-14.2L119.24-14.2Q119.19-13.4 118.59-12.85 117.99-12.3 117.19-12.3L117.19-12.3 97.44-12.3 96.54-15.75 115.79-15.75 114.99-15.05 114.99-16.15Q114.84-18.2 113.67-19.68 112.49-21.15 110.79-21.95 109.09-22.75 107.24-22.75L107.24-22.75Q105.74-22.75 104.27-22.23 102.79-21.7 101.62-20.53 100.44-19.35 99.74-17.5 99.04-15.65 99.04-13.05L99.04-13.05Q99.04-10.15 100.22-7.95 101.39-5.75 103.49-4.48 105.59-3.2 108.34-3.2L108.34-3.2Q110.14-3.2 111.44-3.65 112.74-4.1 113.67-4.78 114.59-5.45 115.24-6.15L115.24-6.15Q115.89-6.6 116.54-6.6L116.54-6.6Q117.24-6.6 117.74-6.1 118.24-5.6 118.24-4.9L118.24-4.9Q118.24-4.05 117.44-3.4L117.44-3.4Q115.99-1.85 113.62-0.68 111.24 0.5 108.49 0.5ZM123.99-25.7L123.99-25.7 135.74-25.7Q136.54-25.7 137.06-25.15 137.59-24.6 137.59-23.85L137.59-23.85Q137.59-23.05 137.06-22.53 136.54-22 135.74-22L135.74-22 123.99-22Q123.24-22 122.69-22.55 122.14-23.1 122.14-23.9L122.14-23.9Q122.14-24.65 122.69-25.18 123.24-25.7 123.99-25.7ZM129.24-32.5L129.24-32.5Q130.09-32.5 130.64-31.93 131.19-31.35 131.19-30.5L131.19-30.5 131.19-6.35Q131.19-5.15 131.54-4.55 131.89-3.95 132.46-3.73 133.04-3.5 133.59-3.5L133.59-3.5Q134.09-3.5 134.46-3.68 134.84-3.85 135.34-3.85L135.34-3.85Q135.84-3.85 136.26-3.38 136.69-2.9 136.69-2.15L136.69-2.15Q136.69-1.25 135.64-0.63 134.59 0 133.29 0L133.29 0Q132.59 0 131.56-0.1 130.54-0.2 129.54-0.75 128.54-1.3 127.86-2.58 127.19-3.85 127.19-6.15L127.19-6.15 127.19-30.5Q127.19-31.35 127.79-31.93 128.39-32.5 129.24-32.5ZM161.28-35L161.28-2.05Q161.28-1.2 160.68-0.6 160.08 0 159.23 0L159.23 0Q158.38 0 157.83-0.6 157.28-1.2 157.28-2.05L157.28-2.05 157.28-35Q157.28-35.85 157.86-36.43 158.43-37 159.28-37L159.28-37Q160.18-37 160.73-36.43 161.28-35.85 161.28-35L161.28-35ZM192.83-13L192.83-13Q192.83-9.1 191.13-6.05 189.43-3 186.51-1.25 183.58 0.5 179.88 0.5L179.88 0.5Q176.23 0.5 173.31-1.25 170.38-3 168.66-6.05 166.93-9.1 166.93-13L166.93-13Q166.93-16.9 168.66-19.95 170.38-23 173.31-24.75 176.23-26.5 179.88-26.5L179.88-26.5Q183.58-26.5 186.51-24.75 189.43-23 191.13-19.95 192.83-16.9 192.83-13ZM188.83-13L188.83-13Q188.83-15.9 187.66-18.1 186.48-20.3 184.46-21.55 182.43-22.8 179.88-22.8L179.88-22.8Q177.38-22.8 175.33-21.55 173.28-20.3 172.11-18.1 170.93-15.9 170.93-13L170.93-13Q170.93-10.15 172.11-7.95 173.28-5.75 175.33-4.48 177.38-3.2 179.88-3.2L179.88-3.2Q182.43-3.2 184.46-4.48 186.48-5.75 187.66-7.95 188.83-10.15 188.83-13ZM209.23-26.5L209.23-26.5Q211.43-26.5 213.28-25.78 215.13-25.05 216.5-23.9 217.88-22.75 218.65-21.5 219.43-20.25 219.43-19.15L219.43-19.15 218.43-19.75 218.43-24.1Q218.43-24.95 219-25.53 219.58-26.1 220.43-26.1L220.43-26.1Q221.33-26.1 221.88-25.53 222.43-24.95 222.43-24.1L222.43-24.1 222.43-2.2Q222.43 1.9 220.7 4.6 218.98 7.3 216.08 8.65 213.18 10 209.63 10L209.63 10Q208.13 10 206.3 9.6 204.48 9.2 203.08 8.63 201.68 8.05 201.33 7.45L201.33 7.45Q200.58 6.95 200.4 6.33 200.23 5.7 200.58 5.15L200.58 5.15Q201.08 4.45 201.78 4.45 202.48 4.45 203.58 4.9L203.58 4.9Q204.08 5.05 205.03 5.4 205.98 5.75 207.23 6.03 208.48 6.3 209.68 6.3L209.68 6.3Q213.93 6.3 216.18 4.08 218.43 1.85 218.43-1.8L218.43-1.8 218.43-6.45 218.98-6.2Q218.68-4.8 217.78-3.6 216.88-2.4 215.55-1.48 214.23-0.55 212.6-0.03 210.98 0.5 209.33 0.5L209.33 0.5Q205.83 0.5 203.05-1.25 200.28-3 198.65-6.05 197.03-9.1 197.03-13L197.03-13Q197.03-16.95 198.65-20 200.28-23.05 203.03-24.78 205.78-26.5 209.23-26.5ZM209.78-22.8L209.78-22.8Q207.18-22.8 205.18-21.53 203.18-20.25 202.03-18.05 200.88-15.85 200.88-13L200.88-13Q200.88-10.25 202.03-8.03 203.18-5.8 205.18-4.5 207.18-3.2 209.78-3.2L209.78-3.2Q212.38-3.2 214.38-4.48 216.38-5.75 217.53-7.95 218.68-10.15 218.68-13L218.68-13Q218.68-15.9 217.53-18.1 216.38-20.3 214.38-21.55 212.38-22.8 209.78-22.8ZM233.68-24.25L233.68-2.05Q233.68-1.2 233.1-0.6 232.53 0 231.68 0L231.68 0Q230.78 0 230.22-0.6 229.68-1.2 229.68-2.05L229.68-2.05 229.68-24.25Q229.68-25.1 230.25-25.68 230.82-26.25 231.68-26.25L231.68-26.25Q232.53-26.25 233.1-25.68 233.68-25.1 233.68-24.25L233.68-24.25ZM231.68-29.6L231.68-29.6Q230.43-29.6 229.82-30.1 229.22-30.6 229.22-31.65L229.22-31.65 229.22-32.35Q229.22-33.4 229.88-33.9 230.53-34.4 231.72-34.4L231.72-34.4Q232.93-34.4 233.53-33.9 234.13-33.4 234.13-32.35L234.13-32.35 234.13-31.65Q234.13-30.6 233.5-30.1 232.88-29.6 231.68-29.6ZM252.12-26.5L252.12-26.5Q254.67-26.5 256.72-25.95 258.77-25.4 259.97-24.45 261.17-23.5 261.17-22.3L261.17-22.3Q261.17-21.65 260.75-21.05 260.32-20.45 259.52-20.45L259.52-20.45Q258.87-20.45 258.45-20.7 258.02-20.95 257.65-21.35 257.27-21.75 256.62-22.05L256.62-22.05Q256.02-22.4 254.87-22.6 253.72-22.8 252.52-22.8L252.52-22.8Q249.82-22.8 247.72-21.5 245.62-20.2 244.45-18 243.27-15.8 243.27-13L243.27-13Q243.27-10.2 244.42-8 245.57-5.8 247.62-4.5 249.67-3.2 252.37-3.2L252.37-3.2Q254.12-3.2 255.15-3.5 256.17-3.8 256.92-4.2L256.92-4.2Q257.77-4.7 258.25-5.2 258.72-5.7 259.57-5.7L259.57-5.7Q260.42-5.7 260.87-5.15 261.32-4.6 261.32-3.8L261.32-3.8Q261.32-2.9 260.07-1.9 258.82-0.9 256.7-0.2 254.57 0.5 251.92 0.5L251.92 0.5Q248.12 0.5 245.27-1.28 242.42-3.05 240.85-6.13 239.27-9.2 239.27-13L239.27-13Q239.27-16.8 240.9-19.85 242.52-22.9 245.42-24.7 248.32-26.5 252.12-26.5ZM270.42-24.25L270.42-2.05Q270.42-1.2 269.85-0.6 269.27 0 268.42 0L268.42 0Q267.52 0 266.97-0.6 266.42-1.2 266.42-2.05L266.42-2.05 266.42-24.25Q266.42-25.1 267-25.68 267.57-26.25 268.42-26.25L268.42-26.25Q269.27-26.25 269.85-25.68 270.42-25.1 270.42-24.25L270.42-24.25ZM268.42-29.6L268.42-29.6Q267.17-29.6 266.57-30.1 265.97-30.6 265.97-31.65L265.97-31.65 265.97-32.35Q265.97-33.4 266.62-33.9 267.27-34.4 268.47-34.4L268.47-34.4Q269.67-34.4 270.27-33.9 270.87-33.4 270.87-32.35L270.87-32.35 270.87-31.65Q270.87-30.6 270.25-30.1 269.62-29.6 268.42-29.6ZM289.32 0.5L289.32 0.5Q285.32 0.5 282.32-1.2 279.32-2.9 277.67-5.88 276.02-8.85 276.02-12.75L276.02-12.75Q276.02-17.1 277.74-20.18 279.47-23.25 282.22-24.88 284.97-26.5 288.07-26.5L288.07-26.5Q290.42-26.5 292.54-25.65 294.67-24.8 296.34-23.18 298.02-21.55 299.02-19.28 300.02-17 300.07-14.2L300.07-14.2Q300.02-13.4 299.42-12.85 298.82-12.3 298.02-12.3L298.02-12.3 278.27-12.3 277.37-15.75 296.62-15.75 295.82-15.05 295.82-16.15Q295.67-18.2 294.49-19.68 293.32-21.15 291.62-21.95 289.92-22.75 288.07-22.75L288.07-22.75Q286.57-22.75 285.09-22.23 283.62-21.7 282.44-20.53 281.27-19.35 280.57-17.5 279.87-15.65 279.87-13.05L279.87-13.05Q279.87-10.15 281.04-7.95 282.22-5.75 284.32-4.48 286.42-3.2 289.17-3.2L289.17-3.2Q290.97-3.2 292.27-3.65 293.57-4.1 294.49-4.78 295.42-5.45 296.07-6.15L296.07-6.15Q296.72-6.6 297.37-6.6L297.37-6.6Q298.07-6.6 298.57-6.1 299.07-5.6 299.07-4.9L299.07-4.9Q299.07-4.05 298.27-3.4L298.27-3.4Q296.82-1.85 294.44-0.68 292.07 0.5 289.32 0.5ZM310.22-35L310.22-2.05Q310.22-1.2 309.62-0.6 309.01 0 308.17 0L308.17 0Q307.31 0 306.76-0.6 306.22-1.2 306.22-2.05L306.22-2.05 306.22-35Q306.22-35.85 306.79-36.43 307.37-37 308.22-37L308.22-37Q309.12-37 309.67-36.43 310.22-35.85 310.22-35L310.22-35Z" opacity="1" transform="matrix(1,0,0,1,0,0)" fill="#6a6363" class="slogan-text-1" data-fill-palette-color="secondary" id="text-1"></path></svg></g></svg></g></svg></g></svg></g><g transform="matrix(1,0,0,1,108.24961969482723,0)"><svg viewBox="0 0 179.02076061034552 149.31999368110468" height="149.31999368110468" width="179.02076061034552"><g><svg xmlns="http://www.w3.org/2000/svg" xmlns:xlink="http://www.w3.org/1999/xlink" version="1.1" x="0" y="0" viewBox="1.0469999999999944 9.169999999999913 97.90512973221482 81.66200000000008" enable-background="new 0 0 100 100" xml:space="preserve" height="149.31999368110468" width="179.02076061034552" class="icon-icon-0" data-fill-palette-color="accent" id="icon-0"><g fill="#857de0" data-fill-palette-color="accent"><path d="M1.047 66.597V72.063A2.85 2.85 0 0 0 3.896 74.913H92.792A2.85 2.85 0 0 0 95.64 72.063V66.597z" fill="#857de0" data-fill-palette-color="accent"></path><path d="M92.793 9.17H3.896A2.85 2.85 0 0 0 1.047 12.019V65.776H95.64V12.019A2.847 2.847 0 0 0 92.793 9.17M91.707 62.311H4.825V12.808H91.707z" fill="#857de0" data-fill-palette-color="accent"></path><path d="M61.269 83.279C59.535 82.004 59.352 80.089 59.352 80.089L58.702 75.935H37.988L37.336 80.089S37.155 82.004 35.422 83.279C33.69 84.555 32.323 85.649 33.69 85.832 35.007 86.009 47.43 85.847 48.346 85.833 49.263 85.847 61.684 86.009 63.001 85.832 64.367 85.649 63 84.556 61.269 83.279" fill="#857de0" data-fill-palette-color="accent"></path><polygon points="74.279,90.061 21.101,90.061 23.95,86.505 71.43,86.505  " fill="#857de0" data-fill-palette-color="accent"></polygon><rect x="21.101" y="90.061" width="53.179" height="0.77" fill="#857de0" data-fill-palette-color="accent"></rect><path d="M90.211 85.702S86.313 85.659 83.451 86.497A5.2 5.2 0 0 1 85.662 86.762C86.439 87.033 87.195 87.472 87.993 87.935 89.436 88.777 91.118 89.751 93.61 90.132 97.329 90.083 98.919 89.724 98.951 89.055 98.997 88.142 97.664 85.841 90.211 85.702M85.545 87.099C83.758 86.479 82.134 87.078 81.224 87.568A2.4 2.4 0 0 0 80.778 88.05S81.33 89.819 88.646 90.061C89.863 90.101 90.956 90.126 91.938 90.134 90.24 89.65 88.954 88.906 87.813 88.244 87.031 87.789 86.292 87.357 85.545 87.099" fill="#857de0" data-fill-palette-color="accent"></path><path d="M94.127 90.434L94.125 90.435 93.793 90.441 93.61 90.444 93.602 90.443C93.087 90.446 92.401 90.444 91.923 90.443 91.929 90.444 91.933 90.444 91.937 90.446L91.454 90.441 91.368 90.439H91.366C90.535 90.427 89.634 90.407 88.645 90.374 85.902 90.282 84.108 89.976 82.94 89.63V90.062L91.774 90.832S95.546 90.727 96.697 90.447V90.284C96.012 90.36 95.161 90.41 94.127 90.434" fill="#857de0" data-fill-palette-color="accent"></path></g></svg></g></svg></g><g></g></svg></g><defs></defs></svg><rect width="312.5797786623095" height="247.2" fill="none" stroke="none" visibility="hidden"></rect></g></svg></g></svg>